<?xml version="1.0" encoding="iso-8859-1"?>
<!-- Generator: Adobe Illustrator 19.0.0, SVG Export Plug-In . SVG Version: 6.00 Build 0)  -->
<svg version="1.1" id="Capa_1" xmlns="http://www.w3.org/2000/svg" xmlns:xlink="http://www.w3.org/1999/xlink" x="0px" y="0px"
	 viewBox="0 0 435.816 435.816" style="enable-background:new 0 0 435.816 435.816;" xml:space="preserve">
<g>
	<g>
		<path d="M418.583,307.166c-1.868-2.785-5.027-4.424-8.379-4.35v0H199.913v-48h143.833c5.603-0.084,10.077-4.694,9.993-10.296
			c-0.028-1.907-0.594-3.767-1.631-5.368L198.264,4.531c-3.014-4.619-9.202-5.921-13.821-2.906c-2.825,1.843-4.528,4.988-4.53,8.361
			v292.831H25.622c-5.366-0.16-9.846,4.061-10.006,9.428c-0.044,1.477,0.249,2.945,0.858,4.291l38.733,87.732
			c8.463,19.16,27.427,31.529,48.373,31.549h228.666c20.954-0.041,39.916-12.428,48.373-31.6l38.733-87.743
			C420.718,313.445,420.427,309.928,418.583,307.166z M199.913,43.469L325.23,234.816H199.913V43.469z M362.324,396.348
			c-5.279,11.879-17.079,19.517-30.078,19.468H103.58c-12.999,0.049-24.799-7.589-30.078-19.468L40.97,322.816h353.886
			L362.324,396.348z"/>
	</g>
</g>
<g>
</g>
<g>
</g>
<g>
</g>
<g>
</g>
<g>
</g>
<g>
</g>
<g>
</g>
<g>
</g>
<g>
</g>
<g>
</g>
<g>
</g>
<g>
</g>
<g>
</g>
<g>
</g>
<g>
</g>
</svg>
