<svg height="512" viewBox="0 0 64 64" width="512" xmlns="http://www.w3.org/2000/svg"><g id="outline"><path d="m21 29a3 3 0 1 0 3 3 3 3 0 0 0 -3-3zm0 4a1 1 0 1 1 1-1 1 1 0 0 1 -1 1z"/><path d="m56 17h2v2h-2z"/><path d="m56 45h2v2h-2z"/><path d="m62 18a5.006 5.006 0 0 0 -5-5h-36a1 1 0 0 0 -.64.232l-18 15a1 1 0 0 0 -.36.768v6a1 1 0 0 0 .36.768l18 15a1 1 0 0 0 .64.232h36a5 5 0 0 0 1-9.9v-18.2a5.009 5.009 0 0 0 4-4.9zm-28-3h18v2h-18zm-17.971 4.444 4.308 4.307-5 4.168-4.307-4.306zm8.678 9.263 1.707-1.707h5.586v10h-5.586l-1.707-1.707-1.414 1.414 2 2a1 1 0 0 0 .707.293h6v2h-7.638l-10.8-9 10.8-9h7.638v2h-6a1 1 0 0 0 -.707.293l-2 2zm-20.707 5.825v-5.064l5.484-4.568 4.308 4.308-2.432 2.024a1 1 0 0 0 0 1.536l2.432 2.026-4.308 4.306zm7.027 5.855 4.307-4.306 5 4.168-4.308 4.307zm40.973 8.613h-18v-2h18zm8-3a3 3 0 0 1 -3 3h-3v-4h-22v4h-10.638l-3.79-3.158 1.522-1.522 3.306 2.48a1 1 0 0 0 .6.2h3v-2h-2.667l-2.811-2.108 1.358-1.358 1.48 1.234a1 1 0 0 0 .64.232h33a3 3 0 0 1 3 3zm-26-5v-18h4v18zm10-14v10h-4v-10zm-4-2v-2h4v2zm4 14v2h-4v-2zm2 2v-18h4v18zm6-4v-10h2v-2h-2v-2h4v18h-4v-2h2v-2zm5-16h-33a1 1 0 0 0 -.64.232l-1.48 1.234-1.358-1.358 2.811-2.108h2.667v-2h-3a1 1 0 0 0 -.6.2l-3.306 2.48-1.522-1.522 3.79-3.158h10.638v4h22v-4h3a3 3 0 0 1 0 6z"/><path d="m10.707 28.707-1.414-1.414-3 3a1 1 0 0 0 -.293.707v2a1 1 0 0 0 .293.707l3 3 1.414-1.414-2.707-2.707v-1.172z"/><path d="m28 17h2v2h-2z"/><path d="m28 45h2v2h-2z"/></g></svg>